<?xml version="1.0" encoding="UTF-8" standalone="no"?>
<!DOCTYPE svg PUBLIC "-//W3C//DTD SVG 1.1//EN"
 "http://www.w3.org/Graphics/SVG/1.1/DTD/svg11.dtd">
<!-- Generated by graphviz version 2.40.1 (20161225.0304)
 -->
<!-- Title: G Pages: 1 -->
<svg width="588pt" height="530pt"
 viewBox="0.00 0.00 588.04 530.00" xmlns="http://www.w3.org/2000/svg" xmlns:xlink="http://www.w3.org/1999/xlink">
<g id="graph0" class="graph" transform="scale(1 1) rotate(0) translate(4 526)">
<title>G</title>
<polygon fill="#ffffff" stroke="transparent" points="-4,4 -4,-526 584.04,-526 584.04,4 -4,4"/>
<!-- A0 -->
<g id="node1" class="node">
<title>A0</title>
<polygon fill="none" stroke="#000000" points="315.5259,-225 245.0571,-225 245.0571,-189 315.5259,-189 315.5259,-225"/>
<text text-anchor="middle" x="280.2915" y="-204" font-family="Helvetica,sans-Serif" font-size="10.00" fill="#000000">Weapons</text>
</g>
<!-- A1 -->
<g id="node2" class="node">
<title>A1</title>
<polygon fill="none" stroke="#000000" points="427.2445,-117 373.2445,-117 373.2445,-81 427.2445,-81 427.2445,-117"/>
<text text-anchor="middle" x="400.2445" y="-96" font-family="Helvetica,sans-Serif" font-size="10.00" fill="#000000">Fist</text>
</g>
<!-- A0&#45;&gt;A1 -->
<g id="edge1" class="edge">
<title>A0&#45;&gt;A1</title>
<path fill="none" stroke="#000000" d="M316.5441,-182.5467C317.5777,-181.7025 318.5911,-180.8526 319.577,-180 344.3178,-158.6057 346.1607,-148.8365 369.577,-126 372.6241,-123.0284 375.9274,-119.9665 379.1996,-117.02"/>
<polygon fill="none" stroke="#000000" points="314.1301,-179.9881 308.3409,-188.8614 318.4,-185.535 314.1301,-179.9881"/>
</g>
<!-- A2 -->
<g id="node3" class="node">
<title>A2</title>
<polygon fill="none" stroke="#000000" points="431.0804,-171 369.4086,-171 369.4086,-135 431.0804,-135 431.0804,-171"/>
<text text-anchor="middle" x="400.2445" y="-150" font-family="Helvetica,sans-Serif" font-size="10.00" fill="#000000">Swords</text>
</g>
<!-- A0&#45;&gt;A2 -->
<g id="edge2" class="edge">
<title>A0&#45;&gt;A2</title>
<path fill="none" stroke="#000000" d="M325.0659,-186.8436C339.7686,-180.2248 355.7762,-173.0186 369.2269,-166.9634"/>
<polygon fill="none" stroke="#000000" points="323.3144,-183.7937 315.6326,-191.0903 326.188,-190.1768 323.3144,-183.7937"/>
</g>
<!-- A3 -->
<g id="node4" class="node">
<title>A3</title>
<polygon fill="none" stroke="#000000" points="580.1041,-198 480.8479,-198 480.8479,-162 580.1041,-162 580.1041,-198"/>
<text text-anchor="middle" x="530.476" y="-177" font-family="Helvetica,sans-Serif" font-size="10.00" fill="#000000">Wooden_Sword</text>
</g>
<!-- A2&#45;&gt;A3 -->
<g id="edge3" class="edge">
<title>A2&#45;&gt;A3</title>
<path fill="none" stroke="#000000" d="M441.257,-161.5028C453.787,-164.1006 467.7033,-166.9858 480.7461,-169.6898"/>
<polygon fill="none" stroke="#000000" points="441.6099,-158.0016 431.1075,-159.3986 440.1888,-164.8559 441.6099,-158.0016"/>
</g>
<!-- A4 -->
<g id="node5" class="node">
<title>A4</title>
<polygon fill="none" stroke="#000000" points="574.4282,-144 486.5238,-144 486.5238,-108 574.4282,-108 574.4282,-144"/>
<text text-anchor="middle" x="530.476" y="-123" font-family="Helvetica,sans-Serif" font-size="10.00" fill="#000000">Rusty_Sword</text>
</g>
<!-- A2&#45;&gt;A4 -->
<g id="edge4" class="edge">
<title>A2&#45;&gt;A4</title>
<path fill="none" stroke="#000000" d="M441.2265,-144.5035C455.6365,-141.516 471.8833,-138.1476 486.5274,-135.1116"/>
<polygon fill="none" stroke="#000000" points="440.1888,-141.1441 431.1075,-146.6014 441.6099,-147.9984 440.1888,-141.1441"/>
</g>
<!-- A5 -->
<g id="node6" class="node">
<title>A5</title>
<polygon fill="none" stroke="#000000" points="573.8157,-90 487.1363,-90 487.1363,-54 573.8157,-54 573.8157,-90"/>
<text text-anchor="middle" x="530.476" y="-69" font-family="Helvetica,sans-Serif" font-size="10.00" fill="#000000">Metal_Sword</text>
</g>
<!-- A2&#45;&gt;A5 -->
<g id="edge5" class="edge">
<title>A2&#45;&gt;A5</title>
<path fill="none" stroke="#000000" d="M434.478,-129.0822C448.6584,-119.4389 465.3911,-108.3958 480.912,-99 485.8577,-96.0061 491.1563,-92.958 496.3826,-90.0398"/>
<polygon fill="none" stroke="#000000" points="432.2863,-126.341 426.0121,-134.8783 436.2408,-132.1169 432.2863,-126.341"/>
</g>
<!-- A6 -->
<g id="node7" class="node">
<title>A6</title>
<polygon fill="none" stroke="#000000" points="576.9261,-36 484.0259,-36 484.0259,0 576.9261,0 576.9261,-36"/>
<text text-anchor="middle" x="530.476" y="-15" font-family="Helvetica,sans-Serif" font-size="10.00" fill="#000000">Master_Sword</text>
</g>
<!-- A2&#45;&gt;A6 -->
<g id="edge6" class="edge">
<title>A2&#45;&gt;A6</title>
<path fill="none" stroke="#000000" d="M429.4361,-127.703C429.939,-127.1372 430.4316,-126.5692 430.912,-126 458.1979,-93.6688 450.1969,-74.0931 480.912,-45 484.3268,-41.7656 488.2035,-38.7948 492.2489,-36.1026"/>
<polygon fill="none" stroke="#000000" points="426.9274,-125.2624 422.4603,-134.8695 431.9434,-130.145 426.9274,-125.2624"/>
</g>
<!-- A7 -->
<g id="node8" class="node">
<title>A7</title>
<polygon fill="none" stroke="#000000" points="308.017,-387 252.566,-387 252.566,-351 308.017,-351 308.017,-387"/>
<text text-anchor="middle" x="280.2915" y="-366" font-family="Helvetica,sans-Serif" font-size="10.00" fill="#000000">Spells</text>
</g>
<!-- A8 -->
<g id="node9" class="node">
<title>A8</title>
<polygon fill="none" stroke="#000000" points="427.2445,-306 373.2445,-306 373.2445,-270 427.2445,-270 427.2445,-306"/>
<text text-anchor="middle" x="400.2445" y="-285" font-family="Helvetica,sans-Serif" font-size="10.00" fill="#000000">Fire</text>
</g>
<!-- A7&#45;&gt;A8 -->
<g id="edge7" class="edge">
<title>A7&#45;&gt;A8</title>
<path fill="none" stroke="#000000" d="M315.6686,-345.1111C334.1407,-332.6376 356.3784,-317.6212 373.4146,-306.1173"/>
<polygon fill="none" stroke="#000000" points="313.5401,-342.3251 307.2113,-350.822 317.4575,-348.1264 313.5401,-342.3251"/>
</g>
<!-- A12 -->
<g id="node13" class="node">
<title>A12</title>
<polygon fill="none" stroke="#000000" points="427.2445,-414 373.2445,-414 373.2445,-378 427.2445,-378 427.2445,-414"/>
<text text-anchor="middle" x="400.2445" y="-393" font-family="Helvetica,sans-Serif" font-size="10.00" fill="#000000">Ice</text>
</g>
<!-- A7&#45;&gt;A12 -->
<g id="edge11" class="edge">
<title>A7&#45;&gt;A12</title>
<path fill="none" stroke="#000000" d="M318.182,-377.5287C335.9731,-381.5333 356.778,-386.2162 372.9878,-389.8648"/>
<polygon fill="none" stroke="#000000" points="318.6372,-374.0437 308.1126,-375.2622 317.0999,-380.8728 318.6372,-374.0437"/>
</g>
<!-- A9 -->
<g id="node10" class="node">
<title>A9</title>
<polygon fill="none" stroke="#000000" points="564.4185,-252 496.5335,-252 496.5335,-216 564.4185,-216 564.4185,-252"/>
<text text-anchor="middle" x="530.476" y="-231" font-family="Helvetica,sans-Serif" font-size="10.00" fill="#000000">Fire_Ball</text>
</g>
<!-- A8&#45;&gt;A9 -->
<g id="edge8" class="edge">
<title>A8&#45;&gt;A9</title>
<path fill="none" stroke="#000000" d="M436.9574,-272.7771C455.7221,-264.9964 478.4005,-255.5929 496.7251,-247.9947"/>
<polygon fill="none" stroke="#000000" points="435.4421,-269.6164 427.5453,-276.6798 438.1233,-276.0826 435.4421,-269.6164"/>
</g>
<!-- A10 -->
<g id="node11" class="node">
<title>A10</title>
<polygon fill="none" stroke="#000000" points="575.7642,-360 485.1878,-360 485.1878,-324 575.7642,-324 575.7642,-360"/>
<text text-anchor="middle" x="530.476" y="-339" font-family="Helvetica,sans-Serif" font-size="10.00" fill="#000000">Flame_Breath</text>
</g>
<!-- A8&#45;&gt;A10 -->
<g id="edge9" class="edge">
<title>A8&#45;&gt;A10</title>
<path fill="none" stroke="#000000" d="M436.8657,-303.1848C452.4673,-309.654 470.7877,-317.2505 487.0648,-323.9997"/>
<polygon fill="none" stroke="#000000" points="438.1233,-299.9174 427.5453,-299.3202 435.4421,-306.3836 438.1233,-299.9174"/>
</g>
<!-- A11 -->
<g id="node12" class="node">
<title>A11</title>
<polygon fill="none" stroke="#000000" points="568.8671,-306 492.0849,-306 492.0849,-270 568.8671,-270 568.8671,-306"/>
<text text-anchor="middle" x="530.476" y="-285" font-family="Helvetica,sans-Serif" font-size="10.00" fill="#000000">Fire_Bomb</text>
</g>
<!-- A8&#45;&gt;A11 -->
<g id="edge10" class="edge">
<title>A8&#45;&gt;A11</title>
<path fill="none" stroke="#000000" d="M437.667,-288C454.6509,-288 474.7239,-288 491.8498,-288"/>
<polygon fill="none" stroke="#000000" points="437.5453,-284.5001 427.5453,-288 437.5453,-291.5001 437.5453,-284.5001"/>
</g>
<!-- A13 -->
<g id="node14" class="node">
<title>A13</title>
<polygon fill="none" stroke="#000000" points="566.3791,-414 494.5729,-414 494.5729,-378 566.3791,-378 566.3791,-414"/>
<text text-anchor="middle" x="530.476" y="-393" font-family="Helvetica,sans-Serif" font-size="10.00" fill="#000000">Ice_Spike</text>
</g>
<!-- A12&#45;&gt;A13 -->
<g id="edge12" class="edge">
<title>A12&#45;&gt;A13</title>
<path fill="none" stroke="#000000" d="M437.5901,-396C455.4102,-396 476.6448,-396 494.3101,-396"/>
<polygon fill="none" stroke="#000000" points="437.5453,-392.5001 427.5453,-396 437.5453,-399.5001 437.5453,-392.5001"/>
</g>
<!-- A14 -->
<g id="node15" class="node">
<title>A14</title>
<polygon fill="none" stroke="#000000" points="568.8278,-522 492.1242,-522 492.1242,-486 568.8278,-486 568.8278,-522"/>
<text text-anchor="middle" x="530.476" y="-501" font-family="Helvetica,sans-Serif" font-size="10.00" fill="#000000">Ice_Breath</text>
</g>
<!-- A12&#45;&gt;A14 -->
<g id="edge13" class="edge">
<title>A12&#45;&gt;A14</title>
<path fill="none" stroke="#000000" d="M422.6382,-422.1198C437.9652,-439.0348 459.3476,-460.8392 480.912,-477 485.0678,-480.1145 489.6273,-483.0966 494.2452,-485.8678"/>
<polygon fill="none" stroke="#000000" points="424.8935,-419.39 415.6262,-414.255 419.6686,-424.0483 424.8935,-419.39"/>
</g>
<!-- A15 -->
<g id="node16" class="node">
<title>A15</title>
<polygon fill="none" stroke="#000000" points="566.989,-468 493.963,-468 493.963,-432 566.989,-432 566.989,-468"/>
<text text-anchor="middle" x="530.476" y="-447" font-family="Helvetica,sans-Serif" font-size="10.00" fill="#000000">Ice_Bomb</text>
</g>
<!-- A12&#45;&gt;A15 -->
<g id="edge14" class="edge">
<title>A12&#45;&gt;A15</title>
<path fill="none" stroke="#000000" d="M437.0148,-411.2467C454.7885,-418.6165 476.0631,-427.4379 493.8215,-434.8014"/>
<polygon fill="none" stroke="#000000" points="438.1233,-407.9174 427.5453,-407.3202 435.4421,-414.3836 438.1233,-407.9174"/>
</g>
<!-- A16 -->
<g id="node17" class="node">
<title>A16</title>
<polygon fill="none" stroke="#000000" points="71.8381,-171 .0539,-171 .0539,-135 71.8381,-135 71.8381,-171"/>
<text text-anchor="middle" x="35.946" y="-150" font-family="Helvetica,sans-Serif" font-size="10.00" fill="#000000">Character</text>
</g>
<!-- A17 -->
<g id="node18" class="node">
<title>A17</title>
<polygon fill="none" stroke="#000000" points="184.785,-225 128.113,-225 128.113,-189 184.785,-189 184.785,-225"/>
<text text-anchor="middle" x="156.449" y="-204" font-family="Helvetica,sans-Serif" font-size="10.00" fill="#000000">Player</text>
</g>
<!-- A16&#45;&gt;A17 -->
<g id="edge15" class="edge">
<title>A16&#45;&gt;A17</title>
<path fill="none" stroke="#000000" d="M81.5836,-173.4512C97.1664,-180.4342 114.1371,-188.0391 127.975,-194.2402"/>
<polygon fill="none" stroke="#000000" points="82.6578,-170.0973 72.1009,-169.2018 79.7952,-176.4852 82.6578,-170.0973"/>
</g>
<!-- A18 -->
<g id="node19" class="node">
<title>A18</title>
<polygon fill="none" stroke="#000000" points="191.0631,-90 121.8349,-90 121.8349,-54 191.0631,-54 191.0631,-90"/>
<text text-anchor="middle" x="156.449" y="-69" font-family="Helvetica,sans-Serif" font-size="10.00" fill="#000000">Monsters</text>
</g>
<!-- A16&#45;&gt;A18 -->
<g id="edge18" class="edge">
<title>A16&#45;&gt;A18</title>
<path fill="none" stroke="#000000" d="M71.4853,-129.1111C90.0421,-116.6376 112.3818,-101.6212 129.496,-90.1173"/>
<polygon fill="none" stroke="#000000" points="69.336,-126.3386 62.9892,-134.822 73.2411,-132.1481 69.336,-126.3386"/>
</g>
<!-- A20 -->
<g id="node21" class="node">
<title>A20</title>
<polygon fill="none" stroke="#000000" points="183.449,-171 129.449,-171 129.449,-135 183.449,-135 183.449,-171"/>
<text text-anchor="middle" x="156.449" y="-150" font-family="Helvetica,sans-Serif" font-size="10.00" fill="#000000">Npcs</text>
</g>
<!-- A16&#45;&gt;A20 -->
<g id="edge20" class="edge">
<title>A16&#45;&gt;A20</title>
<path fill="none" stroke="#000000" d="M82.2614,-153C98.0959,-153 115.2891,-153 129.1332,-153"/>
<polygon fill="none" stroke="#000000" points="82.1009,-149.5001 72.1009,-153 82.1008,-156.5001 82.1009,-149.5001"/>
</g>
<!-- A17&#45;&gt;A0 -->
<g id="edge16" class="edge">
<title>A17&#45;&gt;A0</title>
<path fill="none" stroke="#000000" stroke-dasharray="5,2" d="M184.861,-207C199.6453,-207 218.0767,-207 234.7885,-207"/>
<polygon fill="#000000" stroke="#000000" points="244.9236,-207 234.9237,-211.5001 239.9236,-207 234.9236,-207.0001 234.9236,-207.0001 234.9236,-207.0001 239.9236,-207 234.9236,-202.5001 244.9236,-207 244.9236,-207"/>
</g>
<!-- A17&#45;&gt;A7 -->
<g id="edge17" class="edge">
<title>A17&#45;&gt;A7</title>
<path fill="none" stroke="#000000" stroke-dasharray="5,2" d="M164.8307,-225.2099C178.1349,-252.7576 206.1809,-305.66 241.006,-342 242.187,-343.2324 243.4327,-344.4414 244.725,-345.6229"/>
<polygon fill="#000000" stroke="#000000" points="252.5102,-352.0588 241.9356,-349.1556 248.6565,-348.873 244.8028,-345.6872 244.8028,-345.6872 244.8028,-345.6872 248.6565,-348.873 247.67,-342.2189 252.5102,-352.0588 252.5102,-352.0588"/>
</g>
<!-- A19 -->
<g id="node20" class="node">
<title>A19</title>
<polygon fill="none" stroke="#000000" points="308.6856,-63 251.8974,-63 251.8974,-27 308.6856,-27 308.6856,-63"/>
<text text-anchor="middle" x="280.2915" y="-42" font-family="Helvetica,sans-Serif" font-size="10.00" fill="#000000">Goblin</text>
</g>
<!-- A18&#45;&gt;A19 -->
<g id="edge19" class="edge">
<title>A18&#45;&gt;A19</title>
<path fill="none" stroke="#000000" d="M201.4164,-62.1963C218.1527,-58.5474 236.6794,-54.5083 251.5695,-51.2619"/>
<polygon fill="none" stroke="#000000" points="200.3005,-58.8572 191.2756,-64.4071 201.7917,-65.6966 200.3005,-58.8572"/>
</g>
<!-- A21 -->
<g id="node22" class="node">
<title>A21</title>
<polygon fill="none" stroke="#000000" points="318.6936,-279 241.8894,-279 241.8894,-243 318.6936,-243 318.6936,-279"/>
<text text-anchor="middle" x="280.2915" y="-258" font-family="Helvetica,sans-Serif" font-size="10.00" fill="#000000">Red_Mage</text>
</g>
<!-- A20&#45;&gt;A21 -->
<g id="edge21" class="edge">
<title>A20&#45;&gt;A21</title>
<path fill="none" stroke="#000000" d="M188.5165,-177.7549C189.362,-178.5035 190.1934,-179.2527 191.006,-180 215.0817,-202.1402 216.2652,-212.6057 241.006,-234 244.5116,-237.0314 248.3634,-240.0286 252.2421,-242.8614"/>
<polygon fill="none" stroke="#000000" points="190.5506,-174.8913 180.655,-171.1059 186.0302,-180.236 190.5506,-174.8913"/>
</g>
<!-- A22 -->
<g id="node23" class="node">
<title>A22</title>
<polygon fill="none" stroke="#000000" points="319.3637,-333 241.2193,-333 241.2193,-297 319.3637,-297 319.3637,-333"/>
<text text-anchor="middle" x="280.2915" y="-312" font-family="Helvetica,sans-Serif" font-size="10.00" fill="#000000">Blue_Mage</text>
</g>
<!-- A20&#45;&gt;A22 -->
<g id="edge23" class="edge">
<title>A20&#45;&gt;A22</title>
<path fill="none" stroke="#000000" d="M189.8226,-178.557C190.2268,-179.0343 190.6216,-179.5153 191.006,-180 223.8762,-221.4412 206.8851,-247.5823 241.006,-288 243.6753,-291.1619 246.8005,-294.1186 250.1017,-296.8297"/>
<polygon fill="none" stroke="#000000" points="192.1178,-175.8983 182.6209,-171.2015 187.116,-180.7955 192.1178,-175.8983"/>
</g>
<!-- A23 -->
<g id="node24" class="node">
<title>A23</title>
<polygon fill="none" stroke="#000000" points="314.3559,-117 246.2271,-117 246.2271,-81 314.3559,-81 314.3559,-117"/>
<text text-anchor="middle" x="280.2915" y="-96" font-family="Helvetica,sans-Serif" font-size="10.00" fill="#000000">Old_Man</text>
</g>
<!-- A20&#45;&gt;A23 -->
<g id="edge25" class="edge">
<title>A20&#45;&gt;A23</title>
<path fill="none" stroke="#000000" d="M193.1078,-137.0154C209.8767,-129.7035 229.6288,-121.0908 246.0885,-113.9138"/>
<polygon fill="none" stroke="#000000" points="191.3943,-133.9442 183.6268,-141.1495 194.1922,-140.3608 191.3943,-133.9442"/>
</g>
<!-- A24 -->
<g id="node25" class="node">
<title>A24</title>
<polygon fill="none" stroke="#000000" points="308.6366,-171 251.9464,-171 251.9464,-135 308.6366,-135 308.6366,-171"/>
<text text-anchor="middle" x="280.2915" y="-150" font-family="Helvetica,sans-Serif" font-size="10.00" fill="#000000">Knight</text>
</g>
<!-- A20&#45;&gt;A24 -->
<g id="edge27" class="edge">
<title>A20&#45;&gt;A24</title>
<path fill="none" stroke="#000000" d="M193.8459,-153C212.486,-153 234.6625,-153 251.8868,-153"/>
<polygon fill="none" stroke="#000000" points="193.6268,-149.5001 183.6268,-153 193.6267,-156.5001 193.6268,-149.5001"/>
</g>
<!-- A21&#45;&gt;A8 -->
<g id="edge22" class="edge">
<title>A21&#45;&gt;A8</title>
<path fill="none" stroke="#000000" stroke-dasharray="5,2" d="M318.9057,-269.6916C333.1245,-272.8921 349.1859,-276.5073 363.2578,-279.6747"/>
<polygon fill="#000000" stroke="#000000" points="373.0979,-281.8896 362.3538,-284.0838 368.22,-280.7916 363.342,-279.6936 363.342,-279.6936 363.342,-279.6936 368.22,-280.7916 364.3302,-275.3034 373.0979,-281.8896 373.0979,-281.8896"/>
</g>
<!-- A22&#45;&gt;A12 -->
<g id="edge24" class="edge">
<title>A22&#45;&gt;A12</title>
<path fill="none" stroke="#000000" stroke-dasharray="5,2" d="M307.2113,-333.178C324.2657,-344.6942 346.5059,-359.7122 364.9647,-372.1768"/>
<polygon fill="#000000" stroke="#000000" points="373.4146,-377.8827 362.6087,-376.0158 369.2708,-375.0846 365.1271,-372.2864 365.1271,-372.2864 365.1271,-372.2864 369.2708,-375.0846 367.6454,-368.557 373.4146,-377.8827 373.4146,-377.8827"/>
</g>
<!-- A23&#45;&gt;A1 -->
<g id="edge26" class="edge">
<title>A23&#45;&gt;A1</title>
<path fill="none" stroke="#000000" stroke-dasharray="5,2" d="M314.6652,-99C329.7401,-99 347.4716,-99 362.8733,-99"/>
<polygon fill="#000000" stroke="#000000" points="373.1026,-99 363.1026,-103.5001 368.1026,-99 363.1026,-99.0001 363.1026,-99.0001 363.1026,-99.0001 368.1026,-99 363.1026,-94.5001 373.1026,-99 373.1026,-99"/>
</g>
<!-- A24&#45;&gt;A2 -->
<g id="edge28" class="edge">
<title>A24&#45;&gt;A2</title>
<path fill="none" stroke="#000000" stroke-dasharray="5,2" d="M308.7187,-153C323.8652,-153 342.7645,-153 359.45,-153"/>
<polygon fill="#000000" stroke="#000000" points="369.4997,-153 359.4997,-157.5001 364.4997,-153 359.4997,-153.0001 359.4997,-153.0001 359.4997,-153.0001 364.4997,-153 359.4996,-148.5001 369.4997,-153 369.4997,-153"/>
</g>
</g>
</svg>
